<?xml version="1.0" standalone="no"?><svg xmlns="http://www.w3.org/2000/svg" viewBox="0 0 1440 320"><path fill="#608daf" fill-opacity="1" d="M0,192L48,192L96,96L144,160L192,32L240,32L288,256L336,192L384,192L432,224L480,160L528,128L576,96L624,64L672,160L720,192L768,64L816,288L864,64L912,192L960,96L1008,288L1056,160L1104,160L1152,128L1200,288L1248,288L1296,320L1344,128L1392,64L1440,64L1440,320L1392,320L1344,320L1296,320L1248,320L1200,320L1152,320L1104,320L1056,320L1008,320L960,320L912,320L864,320L816,320L768,320L720,320L672,320L624,320L576,320L528,320L480,320L432,320L384,320L336,320L288,320L240,320L192,320L144,320L96,320L48,320L0,320Z"></path></svg>